# xmcd
#
# Track frame offsets:
# 150
# 18003
# 36404
# 52098
# 68434
# 84990
# 100777
# 122774
# 138103
# 154993
# 170007
# 190128
# 205536
# 221961
#
# Disc length: 3220 seconds
#
#
# Revision: 0
# Processed by: cddbd v1.5.2PL0 Copyright (c) Steve Scherf et al.
# Submitted via: FreeRIP 2.931 
#
DISCID=bc0c920e
DTITLE=re-play - op eigen benen
DYEAR=2006
DGENRE=r&b
TTITLE0=alles wat ik doe
TTITLE1=waar was jij
TTITLE2=ik geloof in jou
TTITLE3=gewond
TTITLE4=het is nog niet voorbij
TTITLE5=voelt zo goed
TTITLE6=de verleiding
TTITLE7=vrij en blij
TTITLE8=een ander leven
TTITLE9=heel even is lang genoeg
TTITLE10=wat ga je doen (sang yò go du)
TTITLE11=kon ik maar bij je zijn
TTITLE12=ik denk alleen aan jou
TTITLE13=liefde is de weg
EXTD=
EXTT0=
EXTT1=
EXTT2=
EXTT3=
EXTT4=
EXTT5=
EXTT6=
EXTT7=
EXTT8=
EXTT9=
EXTT10=
EXTT11=
EXTT12=
EXTT13=
PLAYORDER=
